<?xml version="1.0" encoding="UTF-8" standalone="no"?>
<!-- Generator: Adobe Illustrator 24.3.0, SVG Export Plug-In . SVG Version: 6.00 Build 0)  -->

<svg
   version="1.1"
   id="Layer_1"
   x="0px"
   y="0px"
   viewBox="0 0 533.58 249.99999"
   xml:space="preserve"
   sodipodi:docname="diamond-wht-1.svg"
   inkscape:version="1.4.2 (ebf0e940d0, 2025-05-08)"
   width="533.58002"
   height="250"
   xmlns:inkscape="http://www.inkscape.org/namespaces/inkscape"
   xmlns:sodipodi="http://sodipodi.sourceforge.net/DTD/sodipodi-0.dtd"
   xmlns="http://www.w3.org/2000/svg"
   xmlns:svg="http://www.w3.org/2000/svg"><defs
   id="defs13" /><sodipodi:namedview
   id="namedview13"
   pagecolor="#505050"
   bordercolor="#ffffff"
   borderopacity="1"
   inkscape:showpageshadow="0"
   inkscape:pageopacity="0"
   inkscape:pagecheckerboard="1"
   inkscape:deskcolor="#505050"
   inkscape:zoom="2.16"
   inkscape:cx="268.51852"
   inkscape:cy="106.48148"
   inkscape:window-width="1920"
   inkscape:window-height="1011"
   inkscape:window-x="0"
   inkscape:window-y="0"
   inkscape:window-maximized="1"
   inkscape:current-layer="Layer_1" />
<style
   type="text/css"
   id="style1">
	.st0{fill:#FFFFFF;}
	.st1{fill:#FFD100;}
	.st2{fill:#202945;}
</style>

<path
   class="st1"
   d="m 103.95866,143.87216 c -3.996017,0.57261 -5.28446,3.68479 -2.86319,6.90898 l 11.06686,14.75165 c 11.04817,-6.26789 20.35978,-15.24337 27.00735,-26.04256 z"
   id="path2"
   style="fill:#ffffff;fill-opacity:1;stroke-width:0.622431" />
<path
   class="st1"
   d="m 46.464575,128.15572 c 3.99602,-0.57262 5.284455,-3.67856 2.863192,-6.909 L 20.384668,82.655914 c -2.421264,-3.230412 -1.76149,-3.890202 1.468948,-1.468947 l 38.584571,28.936903 c 3.230439,2.42127 6.336372,1.13283 6.909011,-2.86319 l 6.82186,-70.347328 c 0.566412,-3.996019 1.506278,-3.996019 2.078916,0 l 6.821859,70.359758 c 0.572639,3.99603 3.678574,5.28446 6.909005,2.8632 L 128.57586,81.186967 c 3.23045,-2.421255 3.89022,-1.761465 1.46894,1.468947 l -28.9431,38.590806 c -2.421275,3.23044 -1.132832,6.33638 2.86319,6.909 l 38.78377,4.83008 c 4.83007,-9.92155 7.54388,-21.06311 7.54388,-32.83952 C 150.29254,58.648707 116.65006,25 75.146274,25 33.642482,25 0,58.642482 0,100.14004 c 0,11.78265 2.720032,22.93042 7.5501067,32.85821 z"
   id="path3"
   style="fill:#ffffff;fill-opacity:1;stroke-width:0.622431" />
<path
   class="st1"
   d="m 67.347198,164.76099 c -0.572639,-3.99603 -3.678572,-5.28446 -6.909011,-2.86319 l -11.552331,8.66426 c 6.28033,2.34035 12.971478,3.85907 19.924045,4.43794 z"
   id="path4"
   style="fill:#ffffff;fill-opacity:1;stroke-width:0.622431" />
<path
   class="st1"
   d="M 83.063608,164.75475 81.600904,175 c 6.940119,-0.59132 13.612589,-2.11629 19.886716,-4.46907 l -11.515007,-8.63936 c -3.230415,-2.42125 -6.336367,-1.13284 -6.909005,2.86318"
   id="path5"
   style="fill:#ffffff;fill-opacity:1;stroke-width:0.622431" />
<path
   class="st1"
   d="m 46.464575,143.87216 -35.360379,-4.40062 c 6.672473,10.83655 16.021404,19.84314 27.11315,26.11729 l 11.104197,-14.80769 c 2.427487,-3.22419 1.139052,-6.33637 -2.856968,-6.90898"
   id="path6"
   style="fill:#ffffff;fill-opacity:1;stroke-width:0.622431" />
<path
   class="st2"
   d="m 216.52556,68.134571 c 0,-2.010458 -0.56018,-2.458612 -2.69512,-2.458612 h -8.6518 c -2.24698,0 -2.58311,1.008341 -2.58311,2.682681 v 26.472053 c -2.25319,-1.344454 -5.06657,-3.031251 -10.23902,-3.031251 -16.53803,0 -24.9782,16.506938 -24.9782,32.223338 0,18.30574 9.6726,28.97422 26.44092,28.97422 7.20156,0 15.29318,-1.91086 19.10867,-4.71803 3.36737,-2.47105 3.59144,-5.39026 3.59144,-8.30947 V 68.134571 Z m -13.92382,67.347209 c 0,3.47938 0,8.42149 -6.97745,8.42149 -8.32814,0 -14.179,-8.19742 -14.179,-22.34532 0,-12.01917 5.06658,-22.121259 13.84288,-22.121259 3.60389,0 5.85089,1.686789 7.31357,2.807169 z"
   id="path7"
   style="fill:#ffffff;fill-opacity:1;stroke-width:0.622431" />
<path
   class="st2"
   d="m 230.95356,85.195435 c -4.71804,0 -7.64348,-2.807165 -7.64348,-6.728502 0,-3.927532 2.69512,-7.064593 7.64348,-7.064593 4.83007,0 7.1891,3.137061 7.30115,6.728492 0.11205,4.151619 -2.91923,7.064603 -7.30115,7.064603 m 7.02102,63.867795 c 0,1.79259 -0.22406,2.46486 -2.45857,2.46486 h -9.72864 c -1.78638,0 -1.89841,-0.56021 -1.89841,-2.35282 V 95.770568 c 0,-1.568522 0.22406,-2.35903 2.12251,-2.35903 h 9.50454 c 2.12248,0 2.34654,0.56018 2.45857,2.471063 z"
   id="path8"
   style="fill:#ffffff;fill-opacity:1;stroke-width:0.622431" />
<path
   class="st2"
   d="m 285.17988,111.59902 c 0,-8.29702 0.11205,-19.637734 -17.96962,-19.637734 -13.69352,0 -22.42001,6.740931 -22.42001,13.581474 0,3.58522 2.68888,5.94423 6.0438,5.94423 4.25121,0 5.26578,-2.80096 6.28658,-5.60812 0.90873,-2.01667 2.49593,-6.168311 7.936,-6.168311 6.80319,0 6.91524,6.056261 6.91524,10.207921 v 5.72014 c -12.92171,3.36113 -20.24152,5.27201 -25.16498,10.08964 -4.47526,4.26364 -4.92343,8.96923 -4.92343,11.44028 0,15.82226 18.18126,15.82226 21.81006,15.82226 2.04155,0 10.73694,-0.11205 16.55669,-3.37361 4.36326,-2.359 4.8114,-5.05414 4.92346,-9.98381 v -28.03436 z m -13.21425,26.23553 c 0,2.46485 -0.11205,7.40072 -7.02727,7.40072 -6.00646,0 -9.41116,-4.03957 -9.41116,-9.64145 0,-8.40908 7.59368,-10.76188 16.43843,-13.45701 z"
   id="path9"
   style="fill:#ffffff;fill-opacity:1;stroke-width:0.622431" />
<path
   class="st2"
   d="m 291.91458,104.73358 c 0.11205,-4.71179 0.11205,-5.944219 2.91922,-7.967129 4.59978,-3.361138 13.81178,-4.817626 19.09,-4.817626 11.22868,0 15.27448,4.26368 17.40321,6.392381 1.68681,-1.680547 3.82176,-3.703474 8.86966,-5.159952 3.1433,-0.896308 6.51065,-1.232429 9.87801,-1.232429 4.82385,0 9.65393,0.784275 13.36363,3.703474 5.39026,4.375701 5.5023,11.222481 5.5023,14.888591 v 38.64061 c 0,1.68679 -0.44816,2.35902 -2.24698,2.35902 h -9.31784 c -1.91083,0 -2.35899,-0.56018 -2.35899,-2.47106 v -36.72973 c 0,-4.83008 -0.11206,-12.01917 -8.86966,-12.01917 -3.03127,0 -5.05416,1.1266 -6.28659,2.24697 -2.47105,2.13495 -2.47105,4.38193 -2.47105,7.97336 v 38.52857 c 0,1.79263 -0.33611,2.47106 -2.24696,2.47106 h -8.98793 c -1.79884,0 -2.69515,-0.2241 -2.69515,-2.35902 v -37.48288 c 0,-3.4794 0,-11.67062 -8.75763,-11.67062 -0.89627,0 -3.81548,0 -6.17451,2.24077 -2.5831,2.35901 -2.69515,5.05414 -2.69515,8.30326 v 38.49743 c 0,2.02291 -0.56016,2.47106 -2.47103,2.47106 h -8.98171 c -2.13495,0 -2.47107,-0.67223 -2.47107,-2.35902 v -44.44792 z"
   id="path10"
   style="fill:#ffffff;fill-opacity:1;stroke-width:0.622431" />
<path
   class="st2"
   d="m 427.58621,121.79448 c -0.33614,-13.54413 -8.27214,-29.833194 -26.56542,-29.833194 -16.41978,0 -26.9887,13.039964 -26.9887,30.499174 0,17.24141 10.23281,30.52409 26.76461,30.52409 17.51525,0 27.12559,-14.73295 26.78951,-31.19007 m -14.52759,-0.67224 c 0.55396,12.87193 -4.50019,22.50092 -11.70173,22.50092 -7.42562,0 -12.82834,-10.30124 -12.82834,-22.83703 0,-11.30338 4.16408,-20.48425 11.81376,-20.48425 6.64139,-0.007 12.15611,7.50032 12.71631,20.82036"
   id="path11"
   style="fill:#ffffff;fill-opacity:1;stroke-width:0.622431" />
<path
   class="st2"
   d="m 479.26053,149.17527 c 0,2.0167 -0.67222,2.35282 -2.47107,2.35282 h -8.98791 c -2.24697,0 -2.47107,-0.89633 -2.47107,-2.58311 v -37.92481 c 0,-4.48774 -0.11205,-11.446536 -9.58544,-11.446536 -8.91946,0 -8.91946,6.846766 -8.91946,9.429856 v 39.83567 c 0,2.24077 -0.56019,2.69514 -2.69512,2.69514 h -8.86965 c -1.79885,0 -2.35902,-0.44816 -2.35902,-2.3528 v -44.32342 c 0,-4.48774 0.22406,-7.070837 5.2782,-9.429849 5.95047,-2.695131 12.4362,-3.479406 18.90328,-3.479406 11.17266,0 15.10021,2.807185 17.01107,4.375706 5.05415,4.151609 5.16619,9.429859 5.16619,13.357419 z"
   id="path12"
   style="fill:#ffffff;fill-opacity:1;stroke-width:0.622431" />
<path
   class="st2"
   d="m 533.58021,68.134571 c 0,-2.010458 -0.56018,-2.458612 -2.69513,-2.458612 h -8.64557 c -2.24699,0 -2.5831,1.008341 -2.5831,2.682681 v 26.472053 c -2.24699,-1.344454 -5.06661,-3.031251 -10.23901,-3.031251 -16.53805,0 -24.97821,16.506938 -24.97821,32.223338 0,18.30574 9.67257,28.97422 26.4409,28.97422 7.20156,0 15.28694,-1.91086 19.1087,-4.71803 3.36735,-2.47105 3.59142,-5.39026 3.59142,-8.30947 z M 519.6502,135.48178 c 0,3.47938 0,8.42149 -6.97749,8.42149 -8.32816,0 -14.17902,-8.19742 -14.17902,-22.34532 0,-12.01917 5.06661,-22.121259 13.84289,-22.121259 3.6039,0 5.85088,1.686789 7.31362,2.807169 z"
   id="path13"
   style="fill:#ffffff;fill-opacity:1;stroke-width:0.622431" />
</svg>
